<mxfile host="app.diagrams.net" modified="2024-06-27T20:09:27.905Z" agent="Mozilla/5.0 (Windows NT 10.0; Win64; x64) AppleWebKit/537.36 (KHTML, like Gecko) Chrome/125.0.0.0 Safari/537.36 Edg/125.0.0.0" version="24.6.4" etag="K5eoNjqhTrUSyUl8DpkA" type="github">
  <diagram name="‫עמוד-1‬" id="W57Ox8OYw4IPScbJd-bu">
    <mxGraphModel>
      <root>
        <mxCell id="0" />
        <mxCell id="1" parent="0" />
      </root>
    </mxGraphModel>
  </diagram>
</mxfile>
